<?xml version="1.0" encoding="UTF-8" standalone="no"?>
<!DOCTYPE svg PUBLIC "-//W3C//DTD SVG 1.1//EN" "http://www.w3.org/Graphics/SVG/1.1/DTD/svg11.dtd">
<svg width="100%" height="100%" viewBox="0 0 419 176" version="1.1" xmlns="http://www.w3.org/2000/svg" xmlns:xlink="http://www.w3.org/1999/xlink" xml:space="preserve" xmlns:serif="http://www.serif.com/" style="fill-rule:evenodd;clip-rule:evenodd;stroke-linejoin:round;stroke-miterlimit:2;">
    <g transform="matrix(1.02057,0,0,1.02057,-94.6303,-341.115)">
        <path d="M187.071,507.053L164.888,507.053L164.888,471.336L92.723,471.336L187.072,334.24L187.072,507.053L187.071,507.053ZM164.888,451.154L164.888,401.931L130.995,451.154L164.888,451.154Z" style="fill:rgb(117,174,66);fill-rule:nonzero;"/>
    </g>
    <g transform="matrix(1.02057,0,0,1.02057,-94.6303,-341.115)">
        <path d="M230.051,450.977C236.104,450.977 241.166,450.317 246.138,445.809C250.456,441.893 252.136,436.446 252.136,430.104C252.136,427.565 251.79,425.227 251.095,423.104C250.401,420.983 249.317,419.028 247.846,417.251C246.374,415.467 244.471,413.796 242.138,412.241C239.805,410.684 237.028,409.196 233.807,407.782L221.392,402.523C203.784,394.943 194.979,383.853 194.979,369.252C194.979,359.416 198.672,351.178 206.061,344.561C213.448,337.887 222.642,334.547 233.64,334.547C248.47,334.547 251.666,334.407 274.383,334.407L274.383,353.234C274.383,353.234 237.862,353.144 233.473,353.144C228.084,353.144 223.614,354.703 220.058,357.824C216.504,360.881 214.726,364.73 214.726,369.381C214.726,375.779 219.392,380.937 228.724,384.845L241.555,390.202C251.997,394.506 259.634,399.764 264.468,405.963C269.301,412.168 271.717,419.778 271.717,428.785C271.717,440.853 267.774,450.824 259.885,458.703C251.942,466.635 241.964,471.297 230.187,471.297C219.023,471.297 221.999,471.297 221.999,471.297L222.005,450.985L230.051,450.977Z" style="fill:white;fill-rule:nonzero;"/>
    </g>
    <g transform="matrix(1.02057,0,0,1.02057,-94.6303,-341.115)">
        <path d="M292.797,334.407L292.797,415.335C292.797,426.879 294.604,435.318 298.213,440.652C303.599,448.365 311.183,452.226 320.959,452.226C330.791,452.226 338.4,448.365 343.789,440.652C347.4,435.494 349.205,427.045 349.205,415.335L349.205,334.407L368.619,334.407L368.619,420.963C368.619,435.131 364.396,446.799 355.953,455.973C346.453,466.19 334.791,471.297 320.959,471.297C307.127,471.297 295.491,466.19 286.049,455.973C277.604,446.799 273.382,435.131 273.382,420.963L273.382,334.407L292.797,334.407Z" style="fill:white;fill-rule:nonzero;"/>
    </g>
    <g transform="matrix(1.02057,0,0,1.02057,-94.6303,-341.115)">
        <path d="M353,410.852L349.286,334.408L373.124,334.408C390.936,334.408 403.8,337.797 411.716,344.573C420.45,352.114 424.814,362.071 424.814,374.444C424.814,384.106 422.08,392.414 416.607,399.366C411.134,406.318 403.918,410.766 394.953,412.713L426.951,470.864L402.066,470.864L373.3,415.008L367,415.11M369.634,397.067L376.093,397.067C395.361,397.067 404.993,389.615 404.993,374.709C404.993,360.746 395.622,353.762 376.878,353.762L369.634,353.762L369.634,397.067Z" style="fill:white;fill-rule:nonzero;"/>
    </g>
    <g transform="matrix(1.02057,0,0,1.02057,-94.6303,-341.115)">
        <path d="M504.258,353.762L449.554,353.762L449.554,386.553L502.668,386.553L502.668,405.907L449.554,405.907L449.554,451.512L504.258,451.512L504.258,470.863L428.96,470.863L428.96,364.234L428.96,334.407L504.258,334.407L504.258,353.762Z" style="fill:white;fill-rule:nonzero;"/>
    </g>
    <g transform="matrix(1.02057,0,0,1.02057,-94.6303,-341.115)">
        <rect x="193" y="450.891" width="23.321" height="20.406" style="fill:white;"/>
    </g>
</svg>
