<?xml version="1.0" encoding="UTF-8" standalone="no"?>
<!DOCTYPE svg PUBLIC "-//W3C//DTD SVG 1.1//EN" "http://www.w3.org/Graphics/SVG/1.1/DTD/svg11.dtd">
<svg width="100%" height="100%" viewBox="0 0 453 173" version="1.1" xmlns="http://www.w3.org/2000/svg" xmlns:xlink="http://www.w3.org/1999/xlink" xml:space="preserve" xmlns:serif="http://www.serif.com/" style="fill-rule:evenodd;clip-rule:evenodd;stroke-linejoin:round;stroke-miterlimit:1.41421;">
    <g transform="matrix(1,0,0,1,72.166,55.898)">
        <path d="M0,61.016L0,11.793L-33.893,61.016L0,61.016ZM22.183,116.914L0,116.914L0,81.198L-72.166,81.198L22.183,-55.898L22.183,116.914Z" style="fill:rgb(141,198,63);fill-rule:nonzero;"/>
    </g>
    <g transform="matrix(1,0,0,1,137.329,20.6262)">
        <path d="M0,96.11C6.053,96.11 12.087,95.069 16.087,90.942C16.087,90.942 22.085,81.579 22.085,75.237C22.085,72.698 21.739,70.36 21.044,68.237C20.35,66.116 19.266,64.161 17.795,62.384C16.323,60.6 14.42,58.929 12.087,57.375C9.754,55.818 6.977,54.33 3.756,52.916L-8.659,47.657C-26.267,40.077 -35.072,28.987 -35.072,14.385C-35.072,4.549 -31.379,-3.689 -23.99,-10.306C-16.603,-16.98 -7.409,-20.32 3.589,-20.32C18.418,-20.32 30.001,-12.989 38.333,1.676L22.585,11.19C19.641,5.979 16.836,2.582 14.169,0.997C11.393,-0.816 7.81,-1.722 3.422,-1.722C-1.967,-1.722 -6.437,-0.163 -9.993,2.958C-13.547,6.014 -15.325,9.864 -15.325,14.514C-15.325,20.913 -10.659,26.07 -1.327,29.978L11.504,35.336C21.947,39.639 29.583,44.897 34.417,51.096C39.25,57.301 41.666,64.912 41.666,73.919C41.666,85.987 37.722,95.958 29.834,103.837C21.891,111.768 11.913,116.43 0.136,116.43L-18.995,116.43L-18.989,96.118" style="fill:white;fill-rule:nonzero;"/>
    </g>
    <g transform="matrix(1,0,0,1,206.41,137.057)">
        <path d="M0,-136.89L0,-55.962C0,-44.418 1.806,-35.979 5.415,-30.645C10.802,-22.932 18.386,-19.071 28.161,-19.071C37.993,-19.071 45.604,-22.932 50.992,-30.645C54.603,-35.803 56.407,-44.252 56.407,-55.962L56.407,-136.89L75.821,-136.89L75.821,-50.334C75.821,-36.166 71.6,-24.498 63.156,-15.325C53.655,-5.108 41.993,0 28.161,0C14.33,0 2.693,-5.108 -6.749,-15.325C-15.193,-24.498 -19.415,-36.166 -19.415,-50.334L-19.415,-136.89L0,-136.89Z" style="fill:white;fill-rule:nonzero;"/>
    </g>
    <g transform="matrix(1,0,0,1,313.346,74.3967)">
        <path d="M0,-11.136L6.46,-11.136C25.728,-11.136 35.36,-18.588 35.36,-33.494C35.36,-47.457 25.989,-54.442 7.245,-54.442L0,-54.442L0,-11.136ZM25.319,4.509L57.316,62.66L32.432,62.66L3.666,6.804L0,6.804L0,62.66L-20.347,62.66L-20.347,-73.796L3.49,-73.796C21.304,-73.796 34.167,-70.407 42.083,-63.631C50.816,-56.09 55.181,-46.133 55.181,-33.76C55.181,-24.098 52.445,-15.79 46.974,-8.838C41.501,-1.886 34.283,2.562 25.319,4.509" style="fill:white;fill-rule:nonzero;"/>
    </g>
    <g transform="matrix(1,0,0,1,452.278,117.793)">
        <path d="M0,-96.42L-53.962,-96.42L-53.962,-64.074L-1.568,-64.074L-1.568,-44.982L-53.962,-44.982L-53.962,0.004L0,0.004L0,19.092L-74.276,19.092L-74.276,-115.512L0,-115.512L0,-96.42Z" style="fill:white;fill-rule:nonzero;"/>
    </g>
    <g transform="matrix(1,0,0,1,-76.7222,-360.676)">
        <rect x="173" y="477.327" width="20.146" height="20.406" style="fill:rgb(139,197,63);"/>
    </g>
</svg>
