<?xml version="1.0" encoding="utf-8"?>
<!-- Generated by IcoMoon.io -->
<!DOCTYPE svg PUBLIC "-//W3C//DTD SVG 1.1//EN" "http://www.w3.org/Graphics/SVG/1.1/DTD/svg11.dtd">
<svg version="1.1" xmlns="http://www.w3.org/2000/svg" xmlns:xlink="http://www.w3.org/1999/xlink" width="120" height="120" viewBox="0 0 120 120">
<g id="icomoon-ignore">
	<line stroke-width="1" x1="" y1="" x2="" y2="" stroke="#449FDB" opacity=""></line>
</g>
	<path d="M60 0c-33.136 0-60 26.868-60 60s26.864 60 60 60 60-26.868 60-60-26.864-60-60-60zM84.268 80.736c0.972 0.976 0.972 2.552 0 3.532-0.488 0.492-1.128 0.736-1.768 0.736s-1.28-0.244-1.764-0.736l-20.736-20.736-20.732 20.736c-0.488 0.492-1.128 0.736-1.768 0.736s-1.28-0.244-1.764-0.736c-0.976-0.984-0.976-2.56 0-3.532l20.732-20.74-20.732-20.736c-0.976-0.98-0.976-2.556 0-3.532s2.56-0.976 3.536 0l20.728 20.736 20.732-20.736c0.976-0.976 2.56-0.976 3.536 0s0.976 2.552 0 3.532l-20.732 20.736 20.732 20.74z" fill="#000000"></path>
</svg>
