<?xml version="1.0" encoding="UTF-8" standalone="no"?>
<!DOCTYPE svg PUBLIC "-//W3C//DTD SVG 1.1//EN" "http://www.w3.org/Graphics/SVG/1.1/DTD/svg11.dtd">
<svg width="100%" height="100%" viewBox="0 0 48 48" version="1.1" xmlns="http://www.w3.org/2000/svg" xmlns:xlink="http://www.w3.org/1999/xlink" xml:space="preserve" xmlns:serif="http://www.serif.com/" style="fill-rule:evenodd;clip-rule:evenodd;stroke-linejoin:round;stroke-miterlimit:1.41421;">
    <g transform="matrix(0.59248,0,0,0.59248,-5.59817,-5.62398)">
        <path d="M82.8,35L17.2,35C16.7,35 16.2,34.6 16.2,34L16.2,28.5C16.2,28 16.6,27.5 17.2,27.5L82.7,27.5C83.2,27.5 83.7,27.9 83.7,28.5L83.7,34C83.8,34.6 83.3,35 82.8,35Z" style="fill-rule:nonzero;"/>
    </g>
    <g transform="matrix(0.59248,0,0,0.59248,-5.59817,-5.62398)">
        <path d="M82.8,53.8L17.2,53.8C16.7,53.8 16.2,53.4 16.2,52.8L16.2,47.3C16.2,46.8 16.6,46.3 17.2,46.3L82.7,46.3C83.2,46.3 83.7,46.7 83.7,47.3L83.7,52.8C83.8,53.3 83.3,53.8 82.8,53.8Z" style="fill-rule:nonzero;"/>
    </g>
    <g transform="matrix(0.59248,0,0,0.59248,-5.59817,-5.62398)">
        <path d="M82.8,72.5L17.2,72.5C16.7,72.5 16.2,72.1 16.2,71.5L16.2,66C16.2,65.5 16.6,65 17.2,65L82.7,65C83.2,65 83.7,65.4 83.7,66L83.7,71.5C83.8,72.1 83.3,72.5 82.8,72.5Z" style="fill-rule:nonzero;"/>
    </g>
</svg>
