<?xml version="1.0" encoding="utf-8"?>
<!-- Generated by IcoMoon.io -->
<!DOCTYPE svg PUBLIC "-//W3C//DTD SVG 1.1//EN" "http://www.w3.org/Graphics/SVG/1.1/DTD/svg11.dtd">
<svg version="1.1" xmlns="http://www.w3.org/2000/svg" xmlns:xlink="http://www.w3.org/1999/xlink" width="120" height="120" viewBox="0 0 120 120">
<g id="icomoon-ignore">
	<line stroke-width="1" x1="" y1="" x2="" y2="" stroke="#449FDB" opacity=""></line>
</g>
	<path d="M67.044 33.716c0 2.777-2.251 5.028-5.028 5.028s-5.028-2.251-5.028-5.028c0-2.777 2.251-5.028 5.028-5.028s5.028 2.251 5.028 5.028z" fill="#000000"></path>
	<path d="M56.016 56.108h12v32h-12v-32z" fill="#000000"></path>
	<path d="M60 0c-33.084 0-60 26.916-60 60s26.916 60 60 60c33.080 0 60-26.916 60-60s-26.92-60-60-60zM72.016 89.608c0 1.384-1.116 2.5-2.5 2.5h-15c-1.384 0-2.5-1.116-2.5-2.5v-35c0-1.38 1.116-2.5 2.5-2.5h15c1.384 0 2.5 1.116 2.5 2.5v35zM62.048 44.108c-5.532 0-10.032-4.5-10.032-10.028s4.5-10.028 10.032-10.028 10.032 4.5 10.032 10.028-4.5 10.028-10.032 10.028z" fill="#000000"></path>
</svg>
