<?xml version="1.0" encoding="UTF-8" standalone="no"?>
<!DOCTYPE svg PUBLIC "-//W3C//DTD SVG 1.1//EN" "http://www.w3.org/Graphics/SVG/1.1/DTD/svg11.dtd">
<svg width="100%" height="100%" viewBox="0 0 24 24" version="1.1" xmlns="http://www.w3.org/2000/svg" xmlns:xlink="http://www.w3.org/1999/xlink" xml:space="preserve" xmlns:serif="http://www.serif.com/" style="fill-rule:evenodd;clip-rule:evenodd;stroke-linejoin:round;stroke-miterlimit:1.41421;">
    <rect x="0" y="0" width="24" height="24" style="fill:none;"/>
    <path d="M17,3L5,3C3.89,3 3,3.9 3,5L3,19C3,20.1 3.89,21 5,21L19,21C20.1,21 21,20.1 21,19L21,7L17,3ZM12,19C10.34,19 9,17.66 9,16C9,14.34 10.34,13 12,13C13.66,13 15,14.34 15,16C15,17.66 13.66,19 12,19ZM15,9L5,9L5,5L15,5L15,9Z" style="fill:white;fill-rule:nonzero;"/>
</svg>
