<?xml version="1.0" encoding="utf-8"?>
<!-- Generated by IcoMoon.io -->
<!DOCTYPE svg PUBLIC "-//W3C//DTD SVG 1.1//EN" "http://www.w3.org/Graphics/SVG/1.1/DTD/svg11.dtd">
<svg version="1.1" xmlns="http://www.w3.org/2000/svg" xmlns:xlink="http://www.w3.org/1999/xlink" width="120" height="120" viewBox="0 0 120 120">
<g id="icomoon-ignore">
	<line stroke-width="1" x1="" y1="" x2="" y2="" stroke="#449FDB" opacity=""></line>
</g>
	<path d="M60 0c-33.136 0-60 26.868-60 60s26.864 60 60 60 60-26.868 60-60-26.864-60-60-60zM87.188 36.38l-30 45.212c-0.416 0.624-1.084 1.028-1.832 1.1-0.084 0.008-0.168 0.016-0.252 0.016-0.66 0-1.296-0.264-1.768-0.74l-20.216-20.208c-0.976-0.98-0.976-2.556 0-3.532s2.56-0.976 3.536 0l18.056 18.048 28.308-42.664c0.764-1.148 2.316-1.468 3.468-0.696 1.152 0.764 1.468 2.316 0.7 3.464z" fill="#000000"></path>
</svg>
